Coordinates
version=1
nRows=32
nColumns=12
inDegrees=yes

Units are S.I. units (second, meters, Newtons, ...)
Angles are in degrees

endheader
time	SC_y	SC_z	SC_x	AC_y	AC_z	AC_x	GH_y	GH_z	GH_yy	EL_x	PS_y
       0.0              -35.04          34.67          84.06          48.48         0.1379         -7.512         -94.02          28.85         -70.06          34.18          132.5
   0.04367              -35.04          34.67          84.05          48.48         0.1358          -7.51         -94.02          28.86         -70.07          34.19          132.5
   0.08734              -35.04          34.67          84.05          48.48         0.1337         -7.508         -94.02          28.87         -70.09          34.19          132.5
     0.131              -35.04          34.66          84.05          48.48         0.1314         -7.506         -94.02          28.88          -70.1           34.2          132.5
    0.1747              -35.03          34.66          84.05          48.48          0.129         -7.504         -94.02          28.89         -70.11          34.21          132.5
    0.2183              -35.03          34.65          84.04          48.49         0.1264         -7.502         -94.01           28.9         -70.12          34.22          132.5
     0.262              -35.02          34.65          84.04          48.49         0.1236         -7.499         -94.01          28.92         -70.14          34.23          132.5
    0.3057              -35.02          34.65          84.04          48.49         0.1207         -7.496         -94.01          28.93         -70.15          34.24          132.5
    0.3494              -35.01          34.64          84.03          48.49         0.1175         -7.493          -94.0          28.94         -70.17          34.25          132.5
     0.393              -35.01          34.64          84.03           48.5         0.1141          -7.49          -94.0          28.96         -70.19          34.26          132.5
    0.4367               -35.0          34.63          84.02           48.5         0.1104         -7.487          -94.0          28.97         -70.21          34.27          132.5
    0.4804               -35.0          34.62          84.02           48.5         0.1065         -7.483         -93.99          28.99         -70.23          34.28          132.5
     0.524              -34.99          34.62          84.01           48.5         0.1023         -7.479         -93.99          29.01         -70.25           34.3          132.5
    0.5677              -34.99          34.61          84.01          48.51        0.09771         -7.475         -93.99          29.03         -70.27          34.31          132.5
    0.6114              -34.98           34.6           84.0          48.51        0.09276          -7.47         -93.98          29.05          -70.3          34.33          132.5
     0.655              -34.97          34.59           84.0          48.51         0.0874         -7.466         -93.98          29.07         -70.33          34.34          132.5
    0.6987              -34.96          34.59          83.99          48.52        0.08156          -7.46         -93.97           29.1         -70.36          34.36          132.5
    0.7424              -34.95          34.58          83.98          48.52        0.07521         -7.454         -93.96          29.12         -70.39          34.38          132.5
    0.7861              -34.94          34.57          83.97          48.53        0.06827         -7.448         -93.96          29.15         -70.43          34.41          132.5
    0.8297              -34.93          34.55          83.96          48.53        0.06067         -7.441         -93.95          29.19         -70.47          34.43          132.5
    0.8734              -34.92          34.54          83.95          48.54        0.05233         -7.433         -93.94          29.22         -70.51          34.46          132.5
    0.9171               -34.9          34.53          83.94          48.55        0.04315         -7.425         -93.93          29.26         -70.56          34.49          132.5
    0.9607              -34.89          34.51          83.93          48.55        0.03301         -7.415         -93.92          29.31         -70.61          34.52          132.5
     1.004              -34.87          34.49          83.92          48.56        0.02177         -7.405         -93.91          29.36         -70.67          34.56          132.5
     1.048              -34.85          34.47           83.9          48.57       0.009281         -7.393          -93.9          29.41         -70.74           34.6          132.4
     1.092              -34.83          34.45          83.88          48.58      -0.004657          -7.38         -93.89          29.47         -70.81          34.64          132.4
     1.135              -34.81          34.43          83.87          48.59       -0.02027         -7.366         -93.87          29.54         -70.89          34.69          132.4
     1.179              -34.79           34.4          83.84           48.6       -0.03783          -7.35         -93.86          29.61         -70.98          34.75          132.4
     1.223              -34.76          34.37          83.82          48.62       -0.05768         -7.331         -93.84           29.7         -71.09          34.81          132.4
     1.266              -34.72          34.34          83.79          48.64       -0.08021         -7.311         -93.82           29.8         -71.21          34.88          132.4
      1.31              -34.68           34.3          83.76          48.65        -0.1059         -7.287         -93.79          29.91         -71.34          34.97          132.4
     1.354              -34.64          34.25          83.73          48.67        -0.1354          -7.26         -93.76          30.04         -71.49          35.06          132.4
